<?xml version="1.0" encoding="utf-8"?>
<!-- Generator: Adobe Illustrator 25.0.0, SVG Export Plug-In . SVG Version: 6.00 Build 0)  -->
<svg version="1.1" id="Layer_1" xmlns="http://www.w3.org/2000/svg" xmlns:xlink="http://www.w3.org/1999/xlink" x="0px" y="0px"
	 viewBox="0 0 214 255" style="enable-background:new 0 0 214 255;" xml:space="preserve">
<style type="text/css">
	.st0{fill:#FFFFFF;}
	.st1{fill-rule:evenodd;clip-rule:evenodd;fill:#808184;}
	.st2{fill-rule:evenodd;clip-rule:evenodd;fill:#E8A835;}
	.st3{fill-rule:evenodd;clip-rule:evenodd;fill:#231F20;}
	.st4{fill:#231F20;}
</style>
<polygon class="st0" points="157.3,116.8 144.4,94.5 146.6,93.2 159.5,115.5 157.3,116.8 "/>
<path class="st1" d="M110.3,33C100.8,17.3,85.1,9.1,67.1,8.8C54.9,8.6,34.3,8.7,34.3,8.7c16.2,0,31.9,4.1,45.7,11.5
	c11.5,6.2,21.8,14.8,30.1,25.3c8.3-10.5,18.5-19.1,30.1-25.3c13.9-7.5,29.6-11.6,45.8-11.6c0,0-18.8-0.1-31.1,0.1
	C136.3,9.1,120.1,16.6,110.3,33L110.3,33z"/>
<path class="st1" d="M87.6,215.3c6.5-2.4,12.3-5.9,17.3-10.3c-1.8-2-3.4-4.1-4.9-6.3c-7.3-10.7-11.5-23.5-11.5-37
	c0-9.2,2-18.2,5.6-26.5l0.1-0.3l0,0c3-6.6,7-13.1,12.1-18.4V116v-6.9c0-1.3,0-2.5,0-3.8h0c0-0.3,0-0.6,0-0.9c0-0.1,0-0.3,0-0.4
	c0-0.2,0-0.4,0-0.5c0-0.1,0-0.2,0-0.3c0-0.2,0-0.4,0-0.6l0-0.3c0-0.2,0-0.4,0-0.6l0-0.4c0-0.2,0-0.4,0-0.6l0-0.3c0-0.2,0-0.4,0-0.6
	l0-0.3c0-0.2,0-0.4-0.1-0.6l0-0.2c0-0.2,0-0.4-0.1-0.7l0-0.2c0-0.2,0-0.4-0.1-0.7l0-0.2c0-0.2-0.1-0.5-0.1-0.7l0-0.2
	c0-0.2-0.1-0.5-0.1-0.7l0-0.2c0-0.2-0.1-0.5-0.1-0.7l0-0.2c0-0.2-0.1-0.5-0.1-0.7l0-0.2c0-0.2-0.1-0.5-0.1-0.7l0-0.2
	c0-0.2-0.1-0.5-0.1-0.7l0-0.2c0-0.2-0.1-0.5-0.1-0.7l0-0.2c0-0.2-0.1-0.5-0.1-0.7l0-0.2c-0.1-0.2-0.1-0.5-0.2-0.7l0-0.2
	c-0.1-0.2-0.1-0.5-0.2-0.7l0-0.2c-0.1-0.2-0.1-0.5-0.2-0.7l0-0.2c-0.1-0.2-0.1-0.5-0.2-0.7l0-0.2c-0.1-0.2-0.1-0.5-0.2-0.7l0-0.2
	c-0.1-0.2-0.1-0.4-0.2-0.7l-0.1-0.2c-0.1-0.2-0.1-0.4-0.2-0.6l-0.1-0.2c-0.1-0.2-0.1-0.4-0.2-0.6l-0.1-0.2c-0.1-0.2-0.1-0.4-0.2-0.6
	l-0.1-0.2c-0.1-0.2-0.1-0.4-0.2-0.6l-0.1-0.2c-0.1-0.2-0.1-0.4-0.2-0.6l-0.1-0.2c-0.1-0.2-0.1-0.4-0.2-0.6l-0.1-0.2
	c-0.1-0.2-0.2-0.4-0.2-0.6l-0.1-0.2c-0.1-0.2-0.2-0.4-0.2-0.6l-0.1-0.2c-0.1-0.2-0.2-0.4-0.2-0.6l-0.1-0.2c-0.1-0.2-0.2-0.4-0.3-0.6
	l-0.1-0.2c-0.1-0.2-0.2-0.4-0.3-0.6l-0.1-0.2c-0.1-0.2-0.2-0.4-0.3-0.6l-0.1-0.2c-0.1-0.2-0.2-0.4-0.3-0.5l-0.1-0.3
	c-0.1-0.2-0.2-0.4-0.3-0.5l-0.1-0.2c-0.1-0.2-0.2-0.4-0.3-0.6l-0.1-0.2c-0.1-0.2-0.2-0.4-0.3-0.6L98,71.6c-0.1-0.2-0.2-0.4-0.3-0.5
	l-0.1-0.2c-0.1-0.2-0.2-0.3-0.3-0.5l-0.1-0.2c-0.1-0.2-0.2-0.3-0.3-0.5l-0.1-0.2c-0.1-0.2-0.2-0.3-0.3-0.5l-0.1-0.2
	c-0.1-0.2-0.2-0.3-0.3-0.5l-0.2-0.3c-0.1-0.2-0.2-0.3-0.3-0.5l-0.2-0.3c-0.1-0.2-0.2-0.3-0.3-0.5l-0.1-0.2c-0.1-0.2-0.2-0.3-0.3-0.5
	l-0.2-0.3c-0.1-0.2-0.2-0.3-0.3-0.5L94,64.9c-0.1-0.2-0.2-0.3-0.3-0.5l-0.2-0.2c-0.1-0.1-0.2-0.3-0.3-0.4L93,63.5
	c-0.1-0.1-0.2-0.3-0.3-0.4l-0.2-0.3c-0.1-0.1-0.2-0.3-0.3-0.4L92,62.1c-0.1-0.1-0.2-0.3-0.3-0.4c-0.1-0.1-0.1-0.2-0.2-0.3
	c-0.1-0.1-0.2-0.3-0.3-0.4l-0.2-0.3c-0.1-0.1-0.2-0.3-0.3-0.4l-0.2-0.3c-0.1-0.1-0.2-0.3-0.3-0.4l-0.2-0.2c-0.1-0.1-0.2-0.3-0.4-0.4
	l-0.2-0.2c-0.1-0.1-0.2-0.3-0.3-0.4l-0.2-0.3c-0.1-0.1-0.2-0.3-0.3-0.4l-0.2-0.2c-0.1-0.1-0.2-0.3-0.3-0.4c-0.1-0.1-0.2-0.2-0.2-0.3
	c-0.1-0.1-0.3-0.3-0.4-0.4L87,56.2c-0.1-0.2-0.3-0.3-0.4-0.5l-0.1-0.2l0,0c-0.2-0.2-0.4-0.4-0.6-0.6l0,0c-0.2-0.2-0.4-0.4-0.6-0.6
	C74,43.1,59,35.5,42.3,33.7v117.6c0,18.8,7.6,35.7,19.9,48C69.3,206.4,77.9,211.9,87.6,215.3L87.6,215.3z"/>
<path class="st2" d="M114.3,116.5c5.2,5.4,9.5,11.7,12.5,18.4c3.8,8.4,5.8,17.5,5.8,26.9c0,13.6-4.2,26.5-11.7,37.2
	c-1.5,2.1-3.1,4.1-4.8,6c4.9,4.3,10.6,7.7,17,10.2c9.5-3.4,18.1-8.9,25.1-15.9c12.3-12.3,19.9-29.3,19.9-48V33.7
	c-16.7,1.8-31.6,9.3-42.8,20.6c-13,13-21,30.9-21,50.7h0V116.5L114.3,116.5z"/>
<path class="st3" d="M110.4,135.3c2.4,0,4.4,2,4.4,4.4c0,2.4-2,4.4-4.4,4.4c-2.4,0-4.4-2-4.4-4.4C106,137.3,108,135.3,110.4,135.3
	L110.4,135.3z M186,16.7c-14.9,0-29.3,3.7-42,10.6c-12.7,6.9-23.8,16.8-32,29.3l-1.9,3.1l-1.8-3.2C100.1,44,89.1,34.1,76.3,27.2
	c-12.7-6.8-27.1-10.6-42-10.6V8.7c16.2,0,31.9,4.1,45.7,11.5c11.5,6.2,21.8,14.8,30.1,25.3c8.3-10.5,18.5-19.1,30.1-25.3
	c13.9-7.5,29.6-11.6,45.8-11.6V16.7L186,16.7z M121.2,218.3c-3.8-2.2-7.4-4.8-10.6-7.6c-3.3,2.9-6.9,5.5-10.8,7.7
	c3.4,0.5,6.9,0.8,10.5,0.8C113.9,219.2,117.6,218.9,121.2,218.3L121.2,218.3z M87.6,215.3c6.5-2.4,12.3-5.9,17.3-10.3
	c-1.8-2-3.4-4.1-4.9-6.3c-7.3-10.7-11.5-23.5-11.5-37c0-9.2,2-18.2,5.6-26.5c3-6.7,7.1-13.3,12.2-18.7c0-4.2,0-8,0-12.2
	c-0.2-19.5-8.2-37.2-21.1-50.1C74,43.1,59,35.5,42.3,33.7v117.6c0,18.8,7.6,35.7,19.9,48C69.3,206.4,77.9,211.9,87.6,215.3
	L87.6,215.3z M114.3,116.5c5.2,5.4,9.5,11.7,12.5,18.4c3.8,8.4,5.8,17.5,5.8,26.9c0,13.6-4.2,26.5-11.7,37.2c-1.5,2.1-3.1,4.1-4.8,6
	c4.9,4.3,10.6,7.7,17,10.2c9.5-3.4,18.1-8.9,25.1-15.9c12.3-12.3,19.9-29.3,19.9-48V33.7c-16.7,1.8-31.6,9.3-42.8,20.6
	c-12.8,12.8-20.8,30.4-21,49.8C114.3,108.2,114.3,112.4,114.3,116.5L114.3,116.5z M110.3,80.3c3.9-12.1,10.7-22.9,19.4-31.6
	C144.1,34.2,164,25.3,186,25.3c0,41.6,0,83.3,0,125c0,0.6,0,1.2,0,1.8c-0.2,20.6-8.7,39.3-22.2,52.8c-13.7,13.7-32.7,22.2-53.7,22.2
	c-21,0-39.9-8.5-53.7-22.2c-13.6-13.6-22-32.2-22.2-52.9c0-0.6,0-1.2,0-1.8c0-41.6,0-83.3,0-124.9c22.1,0,42.1,8.9,56.5,23.4
	C99.6,57.5,106.3,68.2,110.3,80.3L110.3,80.3z M110.5,124.2c-3.8,4.3-6.9,9.2-9.2,14.4c-3.2,7.2-4.9,15.1-4.9,23.3
	c0,11.9,3.7,23.1,10.1,32.5c1.2,1.8,2.6,3.5,4,5.2c1.4-1.6,2.7-3.2,3.9-5c6.5-9.4,10.3-20.7,10.3-32.7c0-8.2-1.8-16.3-5.1-23.6
	C117.3,133.1,114.2,128.4,110.5,124.2L110.5,124.2z"/>
<path class="st0" d="M67.9,88.1c-2.8,1.8-5.2,3.9-7,5.9c1.8,2.1,4.2,4.1,7,5.9V88.1L67.9,88.1z M67.5,73.7h0.4v0h11.8v0h0.4
	c0.7,0,1.3,0.6,1.3,1.3l0,0c0,0.7-0.6,1.3-1.3,1.3h-0.4v4.2c0.9-0.2,1.8-0.3,2.6-0.4c4.4-0.4,7.9,0.8,9.5,3.5l0,0
	c1.6,2.7,0.8,6.3-1.7,10c-0.1,0.2-0.2,0.3-0.4,0.5c0.2,0.2,0.3,0.5,0.5,0.7c2.4,3.6,3.1,7.1,1.6,9.8c-1.6,2.7-5.1,3.8-9.5,3.5
	c-0.8-0.1-1.7-0.2-2.6-0.4v1.1c0,1.6-0.7,3.1-1.7,4.2c-1.1,1.1-2.6,1.7-4.2,1.7c-1.6,0-3.1-0.7-4.2-1.7c-1.1-1.1-1.7-2.6-1.7-4.2
	v-1.1c-1,0.2-1.9,0.3-2.8,0.4c-4.4,0.4-7.9-0.8-9.5-3.5l0,0c-1.6-2.7-0.8-6.3,1.7-10c0.1-0.2,0.2-0.3,0.4-0.5
	c-0.1-0.2-0.2-0.3-0.4-0.5c-2.5-3.7-3.3-7.3-1.7-10l0,0c1.1-1.9,3.1-3,5.9-3.4c1.9-0.3,4.1-0.2,6.5,0.3v-4.3h-0.4
	c-0.7,0-1.3-0.6-1.3-1.3l0,0C66.3,74.2,66.9,73.7,67.5,73.7L67.5,73.7z M73.7,92.3c1,0,1.8,0.8,1.8,1.8c0,1-0.8,1.8-1.8,1.8
	c-1,0-1.8-0.8-1.8-1.8C71.9,93.1,72.7,92.3,73.7,92.3L73.7,92.3z M59.3,96.1c-1.9,2.8-2.6,5.4-1.6,7.2l0,0c1,1.8,3.7,2.5,7.1,2.2
	c1-0.1,2-0.2,3-0.5V103C64.5,100.9,61.5,98.5,59.3,96.1L59.3,96.1z M79.7,85.2c3.4,2,6.2,4.4,8.4,6.8c1.9-2.8,2.6-5.4,1.6-7.2l0,0
	c-1-1.8-3.7-2.5-7.1-2.2c-0.9,0.1-1.9,0.2-2.8,0.4V85.2L79.7,85.2z M77.2,107c-2.2-0.6-4.5-1.5-6.7-2.7v4.4c0,0.9,0.4,1.8,1,2.4
	c0.6,0.6,1.5,1,2.4,1c0.9,0,1.8-0.4,2.4-1c0.6-0.6,1-1.5,1-2.4V107L77.2,107z M67.9,83.1c-2.3-0.5-4.4-0.6-6.1-0.4
	c-1.9,0.3-3.3,1-4,2.2v0c-1,1.8-0.3,4.4,1.6,7.2c2.2-2.4,5.1-4.8,8.6-6.9V83.1L67.9,83.1z M70.4,101.5c2.3,1.3,4.6,2.2,6.7,2.9V83.6
	c-0.9,0.3-1.8,0.6-2.8,1c-1.3,0.5-2.7,1.1-4,1.8V101.5L70.4,101.5z M79.7,105.1c1,0.2,1.9,0.4,2.8,0.4c3.4,0.3,6.1-0.4,7.1-2.2
	c1-1.7,0.4-4.3-1.5-7.1l-0.1-0.1c-2.2,2.4-5,4.7-8.4,6.8V105.1L79.7,105.1z M86.5,94c-1.8-2-4.1-4-6.8-5.8v11.6
	C82.5,98,84.8,96,86.5,94L86.5,94z M70.4,83.5c1-0.5,2-1,3-1.3c1.2-0.5,2.5-0.9,3.7-1.2v-4.7h-6.7V83.5L70.4,83.5z"/>
<path class="st0" d="M154.9,112.6c-1.3,0.7-2.6,1.2-4,1.5c-1.8,0.5-3.6,0.7-5.4,0.7c-3.4,0-6.6-0.8-9.4-2.3l-2.4,4.2
	c-0.2,0.4-0.6,0.8-1.2,0.8c-0.7,0-1.3-0.6-1.3-1.3c0-0.3,0.1-0.5,0.2-0.7l0,0l2.4-4.2c-1.1-0.7-2.1-1.6-3.1-2.5
	c-3.8-3.8-6.1-9-6.1-14.7c0-5.7,2.3-10.9,6.1-14.7c3.8-3.8,9-6.1,14.7-6.1s10.9,2.3,14.7,6.1c3.8,3.8,6.1,9,6.1,14.7l0,1.3l-13,0
	c-0.3,1.7-1.1,3.1-2.2,4.3c-0.1,0.1-0.3,0.3-0.5,0.4l8.9,15.4l0,0c0.1,0.2,0.2,0.4,0.2,0.7c0,0.7-0.6,1.3-1.3,1.3
	c-0.5,0-0.9-0.3-1.1-0.7L154.9,112.6L154.9,112.6z M165.5,101l-2.3,1.6l5,2.8c1.7,1,0.6,3.4-1.3,2.4l-5.1-2.9l-0.2,2.7h0
	c0,0.5-0.4,1-1,1.1c-0.6,0.2-1.2-0.1-1.5-0.6l0,0l-4.9-7.6c-0.9-1.5-0.2-2.5,1.5-2.4l9,0.5c0.6,0,1.1,0.4,1.3,1
	C166.1,100.1,165.9,100.7,165.5,101L165.5,101L165.5,101z M150.6,95.4l-2.8,0l1.4,2.4C149.9,97.2,150.4,96.3,150.6,95.4L150.6,95.4z
	 M148.4,101.4c-0.9,0.4-1.9,0.6-3,0.6c-1,0-2-0.2-3-0.6l-5.2,9c2.5,1.2,5.2,1.9,8.2,1.9c1.6,0,3.2-0.2,4.8-0.6
	c1.2-0.3,2.3-0.7,3.4-1.3L148.4,101.4L148.4,101.4z M140.3,100.1c-0.2-0.1-0.3-0.3-0.5-0.4c-1.1-1.1-1.9-2.6-2.2-4.3l-10.4,0
	c0.3,4.5,2.3,8.6,5.3,11.6c0.8,0.8,1.6,1.5,2.6,2.1L140.3,100.1L140.3,100.1z M140.3,95.4c0.2,0.9,0.7,1.8,1.4,2.4l1.4-2.4
	L140.3,95.4L140.3,95.4z M143.8,99.2c0.5,0.2,1.1,0.3,1.7,0.3c0.6,0,1.1-0.1,1.7-0.3l-1.7-2.9L143.8,99.2L143.8,99.2z M163.7,92.9
	c-0.2-3.2-1.3-6.2-2.9-8.8c-1.4,0.8-3.1,1.5-4.9,2c0.5,2.1,0.7,4.4,0.8,6.7H163.7L163.7,92.9z M159.2,82.1c-0.3-0.3-0.5-0.6-0.8-0.9
	c-0.7-0.7-1.4-1.3-2.1-1.8c-1.3-0.9-2.7-1.7-4.2-2.3c0.6,0.8,1.2,1.7,1.7,2.7c0.6,1.2,1.1,2.5,1.6,3.9
	C156.7,83.2,158,82.7,159.2,82.1L159.2,82.1z M136.3,78.3c-1.4,0.8-2.7,1.8-3.8,2.9c-0.3,0.3-0.5,0.6-0.8,0.8c1.2,0.6,2.5,1.2,4,1.7
	c0.4-1.4,1-2.8,1.6-3.9c0.5-1,1.1-1.9,1.7-2.7C138.1,77.4,137.2,77.8,136.3,78.3L136.3,78.3z M130.2,84.1c-1.7,2.6-2.7,5.6-3,8.8
	h7.1c0.1-2.4,0.4-4.6,0.8-6.7C133.3,85.6,131.6,84.9,130.2,84.1L130.2,84.1z M153.4,86.8c-2.1,0.5-4.3,0.7-6.6,0.8v5.3h7.4
	C154.1,90.7,153.8,88.7,153.4,86.8L153.4,86.8z M144.2,87.6c-2.3-0.1-4.5-0.3-6.6-0.8c-0.4,1.9-0.7,3.9-0.7,6.1h7.4V87.6L144.2,87.6
	z M138.2,84.3c1.9,0.4,3.9,0.6,6,0.7v-9c-1.7,0.6-3.3,2.3-4.6,4.8C139.1,81.9,138.6,83.1,138.2,84.3L138.2,84.3z M146.8,85
	c2.1-0.1,4.1-0.3,6-0.7c-0.4-1.3-0.8-2.4-1.4-3.4c-1.3-2.5-2.9-4.2-4.6-4.8V85L146.8,85z"/>
<path class="st4" d="M12.6,76.8c0-0.8,0.2-1.4,0.5-2c0.3-0.5,0.8-1,1.4-1.3c0.6-0.3,1.3-0.4,2.2-0.4h8c0.9,0,1.6,0.1,2.2,0.4
	c0.6,0.3,1.1,0.7,1.4,1.3c0.3,0.5,0.5,1.2,0.5,2c0,0.8-0.2,1.4-0.5,2c-0.3,0.6-0.8,1-1.4,1.3c-0.6,0.3-1.3,0.4-2.2,0.4H24v-2.1h0.7
	c0.4,0,0.8-0.1,1.1-0.2c0.3-0.1,0.5-0.3,0.7-0.5c0.2-0.2,0.2-0.5,0.2-0.9c0-0.3-0.1-0.6-0.2-0.9c-0.2-0.2-0.4-0.4-0.7-0.5
	c-0.3-0.1-0.7-0.2-1.1-0.2h-8c-0.4,0-0.8,0.1-1.1,0.2c-0.3,0.1-0.5,0.3-0.7,0.5c-0.2,0.2-0.2,0.5-0.2,0.9c0,0.3,0.1,0.6,0.2,0.9
	c0.2,0.2,0.4,0.4,0.7,0.5c0.3,0.1,0.7,0.2,1.1,0.2h0.7v2.1h-0.7c-0.8,0-1.6-0.1-2.2-0.4c-0.6-0.3-1.1-0.7-1.4-1.3
	C12.7,78.2,12.6,77.5,12.6,76.8L12.6,76.8z M28.5,89.9v2.1H12.7v-2.1H28.5L28.5,89.9z M28.5,84.6v2.1H12.7v-2.1H28.5L28.5,84.6z
	 M21.5,86v4.9h-2V86H21.5L21.5,86z M28.5,99.2v1.9l-15.8,3.7v-2.2l12.6-2.4l-12.6-2.4v-2.2L28.5,99.2L28.5,99.2z M18.1,97.9v4.7
	h-1.9v-4.7H18.1L18.1,97.9z M28.5,108.6v1.8l-12.1,4.3l-0.3-0.3h12.4v2H12.7v-1.8l11.7-4.3l0.3,0.3h-12v-2H28.5L28.5,108.6z
	 M14.7,122.3v2.9c0,0.4,0.1,0.7,0.3,0.9c0.2,0.2,0.5,0.3,1,0.3h9.3c0.4,0,0.7-0.1,1-0.3c0.2-0.2,0.3-0.5,0.3-0.9v-2.9h2v2.8
	c0,0.7-0.1,1.3-0.4,1.8c-0.3,0.5-0.6,0.9-1.1,1.1c-0.5,0.3-1.1,0.4-1.8,0.4H16c-0.7,0-1.3-0.1-1.8-0.4c-0.5-0.3-0.9-0.6-1.1-1.1
	c-0.3-0.5-0.4-1.1-0.4-1.8v-2.8H14.7L14.7,122.3z M28.5,121v2.1H12.7V121H28.5L28.5,121z M20.8,134v3c0,0.3,0.1,0.5,0.2,0.7
	c0.1,0.2,0.3,0.4,0.6,0.5c0.2,0.1,0.5,0.2,0.9,0.2h2.4c0.4,0,0.7-0.1,0.9-0.2c0.3-0.1,0.4-0.3,0.6-0.5c0.1-0.2,0.2-0.5,0.2-0.7v-3h2
	v2.9c0,0.7-0.1,1.4-0.4,1.9c-0.3,0.5-0.7,0.9-1.2,1.2c-0.5,0.3-1.2,0.4-2,0.4h-2.5c-0.7,0-1.4-0.1-1.9-0.4c-0.5-0.3-0.9-0.7-1.2-1.2
	c-0.3-0.5-0.4-1.2-0.4-1.9V134H20.8L20.8,134z M28.5,132.8v2.1H12.7v-2.1H28.5L28.5,132.8z M12.6,148.3c0-0.8,0.1-1.4,0.4-2
	c0.3-0.5,0.7-0.9,1.3-1.2c0.6-0.3,1.2-0.4,2-0.4h12.3v2.1H16.2c-0.5,0-0.9,0.1-1.2,0.4c-0.3,0.3-0.4,0.6-0.4,1.1
	c0,0.5,0.1,0.9,0.4,1.2c0.3,0.3,0.7,0.4,1.2,0.4h12.3v2.1H16.3c-0.8,0-1.5-0.1-2-0.4c-0.6-0.3-1-0.7-1.3-1.2
	C12.7,149.7,12.6,149.1,12.6,148.3L12.6,148.3z M21.6,156.5l0.2,2.9c0,0.4,0.1,0.7,0.3,0.9c0.2,0.3,0.4,0.4,0.6,0.6
	c0.3,0.1,0.6,0.2,1,0.1l1.6-0.1c0.4,0,0.7-0.1,1-0.3c0.3-0.2,0.5-0.4,0.6-0.7c0.1-0.3,0.2-0.6,0.1-1l-0.2-2.9l2-0.1l0.2,2.7
	c0.1,0.8,0,1.6-0.3,2.2c-0.2,0.6-0.6,1.1-1.1,1.5c-0.5,0.4-1.1,0.6-1.9,0.6l-1.8,0.1c-0.8,0.1-1.4,0-2-0.3c-0.6-0.3-1-0.7-1.4-1.3
	c-0.3-0.6-0.5-1.3-0.6-2.1l-0.2-2.7L21.6,156.5L21.6,156.5z M28.7,155l0.2,2.1l-15.8,1.2l-0.2-2.1L28.7,155L28.7,155z M20.3,159.3
	l0.6,1.9l-7.5,3.1l-0.2-2.3L20.3,159.3L20.3,159.3z M17.5,180.9c-0.3-0.8-0.4-1.5-0.3-2.1c0.1-0.6,0.3-1.2,0.8-1.6
	c0.4-0.5,1-0.8,1.8-1.1l0.7-0.3l0.7,2l-0.7,0.2c-0.5,0.2-0.9,0.5-1.1,0.9c-0.2,0.4-0.2,0.9,0,1.4c0.2,0.5,0.5,0.9,0.8,1.1
	c0.4,0.2,0.9,0.2,1.4,0l1.3-0.4c0.4-0.1,0.6-0.3,0.8-0.6c0.2-0.3,0.3-0.6,0.4-0.9c0.1-0.3,0.1-0.8,0.2-1.3c0,0,0,0,0,0c0,0,0,0,0,0
	l0-0.2c0.1-0.7,0.2-1.3,0.3-1.8c0.1-0.5,0.4-1,0.8-1.4c0.4-0.4,1-0.8,1.7-1l0.9-0.3c0.7-0.3,1.4-0.3,2-0.2c0.6,0.1,1.1,0.4,1.6,0.8
	c0.5,0.5,0.8,1.1,1.1,1.8c0.3,0.8,0.3,1.4,0.2,2.1c-0.1,0.6-0.4,1.2-0.8,1.6c-0.4,0.4-1,0.8-1.8,1.1l-0.8,0.3l-0.7-2l0.7-0.2
	c0.5-0.2,0.9-0.5,1.1-0.8c0.2-0.4,0.2-0.8,0-1.3c-0.2-0.5-0.5-0.9-0.8-1.1c-0.4-0.2-0.8-0.2-1.3,0l-0.9,0.3
	c-0.4,0.1-0.7,0.3-0.9,0.6c-0.2,0.3-0.3,0.6-0.4,0.9c-0.1,0.3-0.1,0.8-0.2,1.3c0,0.1,0,0.1,0,0.2c0,0,0,0.1,0,0.2c0,0,0,0.1,0,0.1
	c0,0,0,0.1,0,0.1c-0.1,0.7-0.2,1.3-0.3,1.7c-0.1,0.4-0.4,0.9-0.7,1.3s-0.9,0.7-1.7,1l-1.4,0.5c-0.8,0.3-1.4,0.3-2.1,0.2
	c-0.6-0.1-1.2-0.4-1.6-0.8C18.1,182.3,17.8,181.7,17.5,180.9L17.5,180.9z M21.8,191.7c-0.3-0.7-0.4-1.4-0.4-2
	c0.1-0.6,0.3-1.2,0.7-1.7c0.4-0.5,1-0.9,1.8-1.3l7.3-3.3c0.8-0.4,1.5-0.5,2.2-0.5c0.7,0,1.3,0.2,1.8,0.6c0.5,0.4,0.9,0.9,1.3,1.6
	c0.3,0.7,0.4,1.4,0.4,2c-0.1,0.6-0.3,1.2-0.7,1.7c-0.4,0.5-1,0.9-1.8,1.3l-0.6,0.3l-0.9-1.9l0.6-0.3c0.4-0.2,0.7-0.4,0.9-0.6
	c0.2-0.2,0.4-0.5,0.4-0.8c0-0.3,0-0.6-0.1-0.9c-0.1-0.3-0.3-0.5-0.6-0.7c-0.2-0.1-0.5-0.2-0.9-0.2c-0.3,0-0.7,0.1-1.1,0.3l-7.3,3.3
	c-0.4,0.2-0.7,0.4-0.9,0.6c-0.2,0.2-0.4,0.5-0.4,0.8c0,0.3,0,0.6,0.1,0.9c0.1,0.3,0.3,0.5,0.6,0.7c0.2,0.2,0.5,0.2,0.9,0.2
	c0.3,0,0.7-0.1,1.1-0.3l0.6-0.3l0.9,1.9l-0.6,0.3c-0.8,0.4-1.5,0.5-2.2,0.5c-0.7,0-1.3-0.2-1.8-0.6
	C22.5,192.9,22.1,192.4,21.8,191.7L21.8,191.7z M26.6,200.3l-1-1.8l13.7-7.9l1,1.8L26.6,200.3L26.6,200.3z M41.9,195.1l1.2,1.7
	l-12.9,9.2l-1.2-1.7L41.9,195.1L41.9,195.1z M31.2,204l3.3,4.7l-1.6,1.1l-3.3-4.7L31.2,204L31.2,204z M36.8,200l3,4.2l-1.6,1.1
	l-3-4.2L36.8,200L36.8,200z M42.5,195.9l3.3,4.7l-1.6,1.1l-3.3-4.7L42.5,195.9L42.5,195.9z M46.9,202.1l1.2,1.3l-5.8,11.5l-0.4,0
	l9-8.6l1.4,1.4l-11.4,10.9l-1.3-1.3l5.5-11.2l0.4,0l-8.7,8.3l-1.4-1.4L46.9,202.1L46.9,202.1z M46.8,224.4c-0.6-0.5-1-1.1-1.2-1.7
	c-0.2-0.6-0.2-1.2,0-1.9c0.2-0.6,0.5-1.3,1.1-1.9l5.3-6.1c0.6-0.6,1.1-1.1,1.8-1.4c0.6-0.3,1.2-0.3,1.9-0.2c0.6,0.1,1.2,0.4,1.8,0.9
	c0.6,0.5,1,1.1,1.2,1.7c0.2,0.6,0.2,1.2,0,1.9s-0.5,1.3-1.1,1.9l-0.4,0.5l-1.6-1.4l0.4-0.5c0.3-0.3,0.5-0.6,0.6-1
	c0.1-0.3,0.1-0.6,0-0.9c-0.1-0.3-0.2-0.5-0.5-0.7c-0.3-0.2-0.5-0.3-0.8-0.4c-0.3,0-0.6,0-0.9,0.2c-0.3,0.1-0.6,0.4-0.9,0.7l-5.3,6.1
	c-0.3,0.3-0.5,0.6-0.6,1c-0.1,0.3-0.1,0.6,0,0.9c0.1,0.3,0.2,0.5,0.5,0.7c0.3,0.2,0.5,0.3,0.8,0.4c0.3,0,0.6,0,0.9-0.2
	c0.3-0.1,0.6-0.4,0.9-0.7l0.4-0.5l1.6,1.4l-0.4,0.5c-0.6,0.6-1.1,1.1-1.8,1.4c-0.6,0.3-1.2,0.3-1.9,0.2
	C47.9,225.2,47.3,224.9,46.8,224.4L46.8,224.4z M62.2,216.3l1.7,1.2l-9.2,12.9l-1.7-1.2L62.2,216.3L62.2,216.3z M55,228.2l4.7,3.3
	l-1.1,1.6l-4.7-3.3L55,228.2L55,228.2z M59,222.6l4.2,3l-1.1,1.6l-4.2-3L59,222.6L59,222.6z M63.1,216.9l4.7,3.3l-1.1,1.6l-4.7-3.3
	L63.1,216.9L63.1,216.9z M78.6,225.5l1.8,0.7l-2.4,16l-2.1-0.8l2.4-12.6l-6.8,10.8l-2.1-0.8L78.6,225.5L78.6,225.5z M73.5,234.7
	l4.4,1.7l-0.7,1.8l-4.4-1.7L73.5,234.7L73.5,234.7z M86,228.2l1.7,0.5l0.9,12.8l-0.4,0.2l3.4-11.9l1.9,0.5l-4.3,15.2l-1.8-0.5
	l-0.9-12.5l0.4-0.2L83.5,244l-1.9-0.5L86,228.2L86,228.2z M95.2,244.6l2.9,0.4c0.4,0,0.7,0,0.9-0.2c0.2-0.2,0.4-0.5,0.4-0.9l1.2-9.2
	c0.1-0.4,0-0.7-0.2-1c-0.2-0.2-0.4-0.4-0.8-0.4l-2.9-0.4l0.2-1.9l2.8,0.4c0.7,0.1,1.3,0.3,1.7,0.6c0.5,0.3,0.8,0.7,1,1.3
	c0.2,0.5,0.2,1.1,0.2,1.8l-1.2,9.1c-0.1,0.7-0.3,1.3-0.6,1.7c-0.3,0.5-0.7,0.8-1.3,1c-0.5,0.2-1.1,0.2-1.8,0.2l-2.8-0.4L95.2,244.6
	L95.2,244.6z M95.7,230.7l2.1,0.3l-2,15.7l-2.1-0.3L95.7,230.7L95.7,230.7z M115.2,233l2.1-0.2l1.1,14.5l-2.1,0.2L115.2,233
	L115.2,233z M112.3,231.9l7.7-0.6l0.1,2l-7.7,0.6L112.3,231.9L112.3,231.9z M122.3,231l2-0.4l2.8,15.6l-2,0.4L122.3,231L122.3,231z
	 M125.8,244.4l5.6-1l0.3,1.9l-5.6,1L125.8,244.4L125.8,244.4z M124.6,237.7l5.1-0.9l0.3,1.9l-5.1,0.9L124.6,237.7L124.6,237.7z
	 M123.4,230.8l5.6-1l0.3,1.9l-5.6,1L123.4,230.8L123.4,230.8z M139.3,243.4c-0.7,0.2-1.4,0.2-2,0.1c-0.6-0.2-1.1-0.5-1.6-1
	c-0.4-0.5-0.8-1.2-1-2l-2.2-7.7c-0.2-0.8-0.3-1.6-0.2-2.2c0.1-0.7,0.4-1.2,0.8-1.7c0.4-0.5,1-0.8,1.8-1c0.7-0.2,1.4-0.2,2-0.1
	c0.6,0.2,1.1,0.5,1.6,1c0.4,0.5,0.8,1.2,1,2l0.2,0.7l-2,0.6l-0.2-0.6c-0.1-0.4-0.3-0.7-0.5-1c-0.2-0.3-0.4-0.4-0.7-0.5
	c-0.3-0.1-0.6-0.1-0.9,0c-0.3,0.1-0.6,0.2-0.8,0.5c-0.2,0.2-0.3,0.5-0.3,0.8c0,0.3,0,0.7,0.1,1.1l2.2,7.7c0.1,0.4,0.3,0.7,0.5,1
	c0.2,0.3,0.4,0.4,0.7,0.5c0.3,0.1,0.6,0.1,0.9,0c0.3-0.1,0.6-0.2,0.8-0.5c0.2-0.2,0.3-0.5,0.3-0.8c0-0.3,0-0.7-0.1-1.1l-0.2-0.6
	l2-0.6l0.2,0.6c0.2,0.8,0.3,1.6,0.2,2.2c-0.1,0.7-0.4,1.2-0.8,1.7C140.7,242.9,140.1,243.2,139.3,243.4L139.3,243.4z M144.9,224.1
	l1.9-0.9l6.5,14.4l-1.9,0.9L144.9,224.1L144.9,224.1z M140.2,226.3l1.9-0.9l6.5,14.4l-1.9,0.9L140.2,226.3L140.2,226.3z
	 M144.3,232.1l4.4-2l0.8,1.8l-4.4,2L144.3,232.1L144.3,232.1z M149,222.3l1.5-1l10.2,7.9l-0.1,0.4l-6.7-10.4l1.7-1.1l8.5,13.3
	l-1.5,1l-10-7.6l0.1-0.4l6.5,10.1l-1.7,1.1L149,222.3L149,222.3z M171,226.5c-0.7,0.5-1.3,0.8-2,0.9c-0.7,0.1-1.3,0-1.9-0.2
	c-0.6-0.3-1.2-0.7-1.7-1.4l-5.1-6.4c-0.5-0.7-0.8-1.3-1-2c-0.1-0.7-0.1-1.3,0.2-1.9c0.3-0.6,0.7-1.2,1.4-1.7c0.6-0.5,1.3-0.8,2-0.9
	c0.7-0.1,1.3,0,1.9,0.2c0.6,0.3,1.2,0.7,1.7,1.4l5.1,6.4c0.5,0.7,0.8,1.3,1,2c0.1,0.7,0.1,1.3-0.2,1.9
	C172.1,225.5,171.7,226,171,226.5L171,226.5z M169.8,224.9c0.3-0.2,0.5-0.5,0.7-0.8c0.1-0.3,0.2-0.6,0.1-0.9
	c-0.1-0.3-0.2-0.6-0.5-0.9l-5.1-6.5c-0.2-0.3-0.5-0.5-0.8-0.7c-0.3-0.1-0.6-0.2-0.9-0.1c-0.3,0.1-0.6,0.2-0.9,0.4
	c-0.3,0.2-0.5,0.5-0.7,0.8c-0.1,0.3-0.2,0.6-0.1,0.9c0.1,0.3,0.2,0.6,0.5,0.9l5.1,6.5c0.2,0.3,0.5,0.5,0.8,0.7
	c0.3,0.1,0.6,0.2,0.9,0.1C169.2,225.3,169.5,225.2,169.8,224.9L169.8,224.9z M165.9,210.1l1.4-1.5l11.4,10.9l-1.4,1.5L165.9,210.1
	L165.9,210.1z M176.7,218.9l3.8-4l1.4,1.3l-3.8,4L176.7,218.9L176.7,218.9z M186.9,210.6c-0.5,0.7-1.1,1.1-1.7,1.4
	c-0.6,0.3-1.2,0.3-1.9,0.2c-0.7-0.1-1.3-0.4-2-1l-6.4-5.1c-0.7-0.5-1.1-1.1-1.4-1.7c-0.3-0.6-0.4-1.2-0.2-1.9c0.1-0.7,0.4-1.3,0.9-2
	c0.5-0.6,1.1-1.1,1.7-1.4c0.6-0.3,1.2-0.3,1.9-0.2c0.7,0.1,1.3,0.4,2,1l6.4,5.1c0.7,0.5,1.1,1.1,1.4,1.7c0.3,0.6,0.4,1.2,0.2,1.9
	C187.7,209.3,187.4,210,186.9,210.6L186.9,210.6z M185.3,209.4c0.2-0.3,0.4-0.6,0.4-0.9c0.1-0.3,0-0.6-0.1-0.9
	c-0.1-0.3-0.4-0.6-0.7-0.8l-6.5-5.1c-0.3-0.2-0.6-0.4-0.9-0.5c-0.3-0.1-0.6,0-0.9,0.1c-0.3,0.1-0.6,0.3-0.8,0.7
	c-0.2,0.3-0.4,0.6-0.4,0.9c-0.1,0.3,0,0.6,0.1,0.9c0.1,0.3,0.4,0.6,0.7,0.8l6.5,5.1c0.3,0.2,0.6,0.4,0.9,0.5c0.3,0.1,0.6,0,0.9-0.1
	C184.8,209.9,185,209.7,185.3,209.4L185.3,209.4z M188.1,193.2l4,2.3c0.7,0.4,1.3,0.9,1.7,1.5c0.4,0.6,0.6,1.2,0.6,1.8
	c0,0.7-0.2,1.3-0.6,2c-0.4,0.7-0.9,1.2-1.4,1.6c-0.6,0.4-1.1,0.5-1.8,0.5c-0.6,0-1.3-0.2-2-0.6l-7.2-4.1c-0.7-0.4-1.3-0.9-1.7-1.5
	c-0.4-0.6-0.6-1.2-0.6-1.8c0-0.7,0.2-1.3,0.6-2c0.4-0.7,0.9-1.2,1.4-1.5c0.5-0.3,1.1-0.5,1.8-0.4c0.7,0,1.3,0.3,2.1,0.7l0.7,0.4
	l-1.1,1.9l-0.7-0.4c-0.4-0.2-0.7-0.3-1-0.4c-0.3,0-0.6,0-0.8,0.1c-0.2,0.1-0.4,0.3-0.6,0.6c-0.2,0.3-0.3,0.6-0.3,0.9
	c0,0.3,0.1,0.6,0.3,0.9c0.2,0.3,0.5,0.5,0.9,0.7l7.2,4.1c0.3,0.2,0.7,0.3,1,0.3c0.3,0,0.6-0.1,0.8-0.2c0.3-0.2,0.5-0.4,0.7-0.7
	c0.2-0.3,0.3-0.6,0.3-0.9c0-0.3-0.1-0.6-0.3-0.9c-0.2-0.3-0.5-0.5-0.8-0.7l-2.3-1.3l-0.9,1.5l-1.7-1L188.1,193.2L188.1,193.2z
	 M193.2,187l6,2.7l-0.9,1.9l-6-2.7l-9.7-0.9l0.9-1.9l7.1,0.9l-5.4-4.6l0.9-1.9L193.2,187L193.2,187z M205.3,172
	c-0.2,0.7-0.5,1.3-0.9,1.8c-0.4,0.5-0.9,0.8-1.5,0.9c-0.6,0.1-1.3,0.1-2.1-0.1l-11.9-2.8l0.5-2l12,2.8c0.5,0.1,0.9,0.1,1.3-0.1
	c0.3-0.2,0.6-0.5,0.7-1c0.1-0.5,0.1-0.9-0.1-1.2c-0.2-0.3-0.6-0.5-1.1-0.7l-12-2.8l0.5-2l11.9,2.8c0.8,0.2,1.4,0.5,1.9,0.9
	c0.5,0.4,0.8,0.9,1,1.5C205.5,170.6,205.5,171.2,205.3,172L205.3,172z M191,162.2l0.2-1.8l12.6-2.8l0.2,0.4l-12.3-1.6l0.2-2l15.7,2
	l-0.2,1.8l-12.2,2.8l-0.2-0.4l11.9,1.5l-0.2,2L191,162.2L191,162.2z M207.7,149.8l-0.1,2.1l-15.8-0.4l0.1-2.1L207.7,149.8
	L207.7,149.8z M191.8,145.7v-2.2l12.1-2.1l-12.1-2.1v-2.2l15.8,3.2v2.2L191.8,145.7L191.8,145.7z M191.8,133.5v-2.1h15.8v2.1H191.8
	L191.8,133.5z M205.7,132.4v-5.7h2v5.7H205.7L205.7,132.4z M198.8,132.4v-5.2h2v5.2H198.8L198.8,132.4z M191.8,132.4v-5.7h2v5.7
	H191.8L191.8,132.4z M199,121.7v-2.9c0-0.4-0.1-0.7-0.2-0.9c-0.1-0.3-0.3-0.5-0.6-0.6c-0.3-0.1-0.6-0.2-0.9-0.2h-1.6
	c-0.4,0-0.7,0.1-1,0.2c-0.3,0.1-0.5,0.3-0.6,0.6c-0.1,0.3-0.2,0.6-0.2,0.9v2.9h-2v-2.7c0-0.8,0.1-1.6,0.4-2.2
	c0.3-0.6,0.7-1.1,1.2-1.4c0.5-0.3,1.2-0.5,1.9-0.5h1.8c0.8,0,1.4,0.2,2,0.5c0.6,0.3,1,0.8,1.3,1.4c0.3,0.6,0.4,1.3,0.4,2.2v2.7H199
	L199,121.7z M191.8,122.6v-2.1h15.8v2.1H191.8L191.8,122.6z M200.5,118.9L200,117l7.7-2.5v2.3L200.5,118.9L200.5,118.9z
	 M207.8,106.8c0,0.8-0.1,1.5-0.4,2.1c-0.3,0.6-0.7,1-1.3,1.3c-0.6,0.3-1.2,0.4-2,0.4h-0.8v-2.1h0.7c0.6,0,1-0.2,1.3-0.5
	c0.3-0.3,0.5-0.7,0.5-1.3c0-0.6-0.2-1-0.5-1.3c-0.3-0.3-0.7-0.4-1.3-0.4h-1.4c-0.4,0-0.7,0.1-1,0.3c-0.3,0.2-0.5,0.4-0.7,0.7
	c-0.2,0.3-0.4,0.7-0.6,1.2c0,0,0,0,0,0c0,0,0,0,0,0l-0.1,0.2c-0.3,0.7-0.6,1.2-0.9,1.6c-0.3,0.4-0.7,0.8-1.2,1.1
	c-0.5,0.3-1.2,0.4-2,0.4h-0.9c-0.8,0-1.5-0.1-2-0.4c-0.5-0.3-1-0.7-1.2-1.3c-0.3-0.6-0.4-1.3-0.4-2.1c0-0.8,0.1-1.5,0.4-2
	c0.3-0.6,0.7-1,1.3-1.3c0.6-0.3,1.2-0.4,2-0.4h0.8v2.1h-0.7c-0.6,0-1,0.1-1.3,0.4c-0.3,0.3-0.5,0.7-0.5,1.2c0,0.6,0.1,1,0.4,1.3
	c0.3,0.3,0.7,0.5,1.2,0.5h1c0.4,0,0.7-0.1,1-0.3c0.3-0.2,0.5-0.4,0.7-0.7c0.2-0.3,0.4-0.7,0.6-1.2c0-0.1,0-0.1,0.1-0.1
	c0,0,0-0.1,0.1-0.1c0,0,0-0.1,0-0.1c0,0,0-0.1,0-0.1c0.3-0.6,0.6-1.1,0.8-1.5c0.3-0.4,0.6-0.7,1.1-1c0.5-0.3,1.1-0.4,1.9-0.4h1.4
	c0.8,0,1.5,0.1,2,0.4c0.6,0.3,1,0.7,1.3,1.3C207.7,105.3,207.8,106,207.8,106.8L207.8,106.8z M207.6,96.7v2.1h-15.8v-2.1H207.6
	L207.6,96.7z M193.1,89.5v-2.1h14.5v2.1H193.1L193.1,89.5z M191.8,92.3v-7.7h2v7.7H191.8L191.8,92.3z M201,75.9h6.6v2.1H201
	l-9.2,3.2V79l6.8-2.1l-6.8-2v-2.1L201,75.9L201,75.9z"/>
</svg>
